<svg id="visual" viewBox="0 0 900 600" width="900" height="600" xmlns="http://www.w3.org/2000/svg" xmlns:xlink="http://www.w3.org/1999/xlink" version="1.1"><rect x="0" y="0" width="900" height="600" fill="#ffffff"></rect><path d="M0 448L21.5 440.5C43 433 86 418 128.8 411.2C171.7 404.3 214.3 405.7 257.2 417.7C300 429.7 343 452.3 385.8 464.7C428.7 477 471.3 479 514.2 466.2C557 453.3 600 425.7 642.8 412.8C685.7 400 728.3 402 771.2 401.2C814 400.3 857 396.7 878.5 394.8L900 393L900 601L878.5 601C857 601 814 601 771.2 601C728.3 601 685.7 601 642.8 601C600 601 557 601 514.2 601C471.3 601 428.7 601 385.8 601C343 601 300 601 257.2 601C214.3 601 171.7 601 128.8 601C86 601 43 601 21.5 601L0 601Z" fill="#C70039" stroke-linecap="round" stroke-linejoin="miter"></path></svg>